<?xml version="1.0" encoding="UTF-8" standalone="no"?>
<!DOCTYPE svg PUBLIC "-//W3C//DTD SVG 1.1//EN"
 "http://www.w3.org/Graphics/SVG/1.1/DTD/svg11.dtd">
<!-- Generated by graphviz version 2.43.0 (0)
 -->
<!-- Title: %3 Pages: 1 -->
<svg width="791pt" height="226pt"
 viewBox="0.00 0.00 791.28 226.02" xmlns="http://www.w3.org/2000/svg" xmlns:xlink="http://www.w3.org/1999/xlink">
<g id="graph0" class="graph" transform="scale(1 1) rotate(0) translate(4 222.02)">
<title>%3</title>
<!-- action -->
<!-- devA -->
<g id="node2" class="node">
<title>devA</title>
<ellipse fill="white" stroke="#999999" cx="178.28" cy="-113.02" rx="36.29" ry="18"/>
<text text-anchor="middle" x="178.28" y="-109.32" font-family="Times,serif" font-size="14.00" fill="#404040">gpio0</text>
</g>
<!-- action&#45;&gt;devA -->
<g id="edge1" class="edge">
<title>action&#45;&gt;devA</title>
<path fill="none" stroke="#999999" d="M178.28,-181.82C178.28,-170.18 178.28,-154.57 178.28,-141.26"/>
<polygon fill="#999999" stroke="#999999" points="181.78,-141.2 178.28,-131.2 174.78,-141.2 181.78,-141.2"/>
<text text-anchor="middle" x="236.28" y="-152.82" font-family="Times,serif" font-size="14.00">pm_device_get()</text>
</g>
<!-- domain -->
<g id="node4" class="node">
<title>domain</title>
<ellipse fill="white" stroke="#999999" cx="345.28" cy="-26.02" rx="69.59" ry="18"/>
<text text-anchor="middle" x="345.28" y="-22.32" font-family="Times,serif" font-size="14.00" fill="#404040">gpio_domain</text>
</g>
<!-- devA&#45;&gt;domain -->
<g id="edge2" class="edge">
<title>devA:se&#45;&gt;domain:n</title>
<path fill="none" stroke="#999999" d="M194.28,-96.02C235.26,-55.04 274.32,-108.03 323.28,-77.02 334.92,-69.65 341.8,-64.42 344.26,-54.07"/>
<polygon fill="#999999" stroke="#999999" points="347.75,-54.33 345.28,-44.02 340.78,-53.61 347.75,-54.33"/>
<text text-anchor="middle" x="399.28" y="-65.82" font-family="Times,serif" font-size="14.00">pm_device_get()</text>
</g>
<!-- devB -->
<g id="node3" class="node">
<title>devB</title>
<ellipse fill="white" stroke="#999999" cx="484.28" cy="-113.02" rx="36.29" ry="18"/>
<text text-anchor="middle" x="484.28" y="-109.32" font-family="Times,serif" font-size="14.00" fill="#404040">gpio1</text>
</g>
<!-- domain&#45;&gt;devA -->
<g id="edge4" class="edge">
<title>domain:sw&#45;&gt;devA:sw</title>
<path fill="none" stroke="#999999" d="M327.28,-7.02C301.85,18.41 31.06,-34.19 8.28,-62.02 -33.94,-113.62 98.65,-52.98 154.35,-89.59"/>
<polygon fill="#999999" stroke="#999999" points="152.31,-92.44 162.28,-96.02 156.72,-87.01 152.31,-92.44"/>
<text text-anchor="middle" x="163.78" y="-65.82" font-family="Times,serif" font-size="14.00">action_cb(PM_DEVICE_ACTION_TURN_ON)</text>
</g>
<!-- domain&#45;&gt;devB -->
<g id="edge3" class="edge">
<title>domain&#45;&gt;devB</title>
<path fill="none" stroke="#999999" d="M406.18,-34.84C425.91,-39.91 446.71,-48.27 462.28,-62.02 469.23,-68.16 474.08,-76.9 477.42,-85.36"/>
<polygon fill="#999999" stroke="#999999" points="474.16,-86.64 480.69,-94.99 480.79,-84.4 474.16,-86.64"/>
<text text-anchor="middle" x="627.78" y="-65.82" font-family="Times,serif" font-size="14.00">action_cb(PM_DEVICE_ACTION_TURN_ON)</text>
</g>
</g>
</svg>
