<?xml version="1.0" encoding="UTF-8" standalone="no"?>
<!DOCTYPE svg PUBLIC "-//W3C//DTD SVG 1.1//EN"
 "http://www.w3.org/Graphics/SVG/1.1/DTD/svg11.dtd">
<!-- Generated by graphviz version 2.43.0 (0)
 -->
<!-- Title: smf_hierarchical Pages: 1 -->
<svg width="149pt" height="231pt"
 viewBox="0.00 0.00 148.50 230.60" xmlns="http://www.w3.org/2000/svg" xmlns:xlink="http://www.w3.org/1999/xlink">
<g id="graph0" class="graph" transform="scale(1 1) rotate(0) translate(4 226.6)">
<title>smf_hierarchical</title>
<g id="clust1" class="cluster">
<title>cluster_0</title>
<path fill="transparent" stroke="black" d="M20,-64C20,-64 100,-64 100,-64 106,-64 112,-70 112,-76 112,-76 112,-199 112,-199 112,-205 106,-211 100,-211 100,-211 20,-211 20,-211 14,-211 8,-205 8,-199 8,-199 8,-76 8,-76 8,-70 14,-64 20,-64"/>
<text text-anchor="middle" x="60" y="-195.8" font-family="Times,serif" font-size="14.00">PARENT</text>
</g>
<!-- init -->
<g id="node1" class="node">
<title>init</title>
<ellipse fill="white" stroke="#999999" cx="60" cy="-220.8" rx="1.8" ry="1.8"/>
</g>
<!-- STATE_S0 -->
<g id="node2" class="node">
<title>STATE_S0</title>
<polygon fill="white" stroke="#999999" points="104.5,-180 15.5,-180 15.5,-144 104.5,-144 104.5,-180"/>
<text text-anchor="middle" x="60" y="-158.3" font-family="Times,serif" font-size="14.00" fill="#404040">STATE_S0</text>
</g>
<!-- init&#45;&gt;STATE_S0 -->
<g id="edge2" class="edge">
<title>init&#45;&gt;STATE_S0</title>
<path fill="none" stroke="#999999" d="M60,-218.81C60,-215.25 60,-202.57 60,-190.19"/>
<polygon fill="#999999" stroke="#999999" points="63.5,-190.08 60,-180.08 56.5,-190.08 63.5,-190.08"/>
</g>
<!-- STATE_S1 -->
<g id="node3" class="node">
<title>STATE_S1</title>
<polygon fill="white" stroke="#999999" points="104.5,-108 15.5,-108 15.5,-72 104.5,-72 104.5,-108"/>
<text text-anchor="middle" x="60" y="-86.3" font-family="Times,serif" font-size="14.00" fill="#404040">STATE_S1</text>
</g>
<!-- STATE_S0&#45;&gt;STATE_S1 -->
<g id="edge1" class="edge">
<title>STATE_S0&#45;&gt;STATE_S1</title>
<path fill="none" stroke="#999999" d="M60,-143.7C60,-135.98 60,-126.71 60,-118.11"/>
<polygon fill="#999999" stroke="#999999" points="63.5,-118.1 60,-108.1 56.5,-118.1 63.5,-118.1"/>
</g>
<!-- STATE_S2 -->
<g id="node4" class="node">
<title>STATE_S2</title>
<polygon fill="white" stroke="#999999" points="140.5,-36 51.5,-36 51.5,0 140.5,0 140.5,-36"/>
<text text-anchor="middle" x="96" y="-14.3" font-family="Times,serif" font-size="14.00" fill="#404040">STATE_S2</text>
</g>
<!-- STATE_S1&#45;&gt;STATE_S2 -->
<g id="edge3" class="edge">
<title>STATE_S1&#45;&gt;STATE_S2</title>
<path fill="none" stroke="#999999" d="M68.9,-71.7C73,-63.73 77.95,-54.1 82.49,-45.26"/>
<polygon fill="#999999" stroke="#999999" points="85.74,-46.6 87.2,-36.1 79.52,-43.4 85.74,-46.6"/>
</g>
<!-- STATE_S2&#45;&gt;STATE_S0 -->
<g id="edge4" class="edge">
<title>STATE_S2&#45;&gt;STATE_S0</title>
<path fill="none" stroke="#999999" d="M104.99,-36.32C113.24,-54.71 122.81,-84.31 113,-108 108.46,-118.97 100.41,-128.86 91.95,-137.04"/>
<polygon fill="#999999" stroke="#999999" points="89.56,-134.47 84.48,-143.77 94.25,-139.67 89.56,-134.47"/>
</g>
</g>
</svg>
