<?xml version="1.0" encoding="UTF-8" standalone="no"?>
<!DOCTYPE svg PUBLIC "-//W3C//DTD SVG 1.1//EN"
 "http://www.w3.org/Graphics/SVG/1.1/DTD/svg11.dtd">
<!-- Generated by graphviz version 2.43.0 (0)
 -->
<!-- Title: %3 Pages: 1 -->
<svg width="670pt" height="269pt"
 viewBox="0.00 0.00 670.23 269.00" xmlns="http://www.w3.org/2000/svg" xmlns:xlink="http://www.w3.org/1999/xlink">
<g id="graph0" class="graph" transform="scale(1 1) rotate(0) translate(4 265)">
<title>%3</title>
<!-- images -->
<g id="node1" class="node">
<title>images</title>
<polygon fill="white" stroke="#999999" points="373.09,-261 289.09,-261 289.09,-223 373.09,-223 373.09,-261"/>
<text text-anchor="middle" x="331.09" y="-245.8" font-family="Times,serif" font-size="14.00" fill="#404040">.png, .jpg</text>
<text text-anchor="middle" x="331.09" y="-230.8" font-family="Times,serif" font-size="14.00" fill="#404040">images</text>
</g>
<!-- sphinx -->
<g id="node8" class="node">
<title>sphinx</title>
<ellipse fill="white" stroke="#999999" cx="492.66" cy="-130" rx="56.64" ry="37.45"/>
<text text-anchor="middle" x="492.66" y="-141.3" font-family="Times,serif" font-size="14.00" fill="#404040">sphinx +</text>
<text text-anchor="middle" x="492.66" y="-126.3" font-family="Times,serif" font-size="14.00" fill="#404040">breathe,</text>
<text text-anchor="middle" x="492.66" y="-111.3" font-family="Times,serif" font-size="14.00" fill="#404040">docutils</text>
</g>
<!-- images&#45;&gt;sphinx -->
<g id="edge1" class="edge">
<title>images&#45;&gt;sphinx</title>
<path fill="none" stroke="#999999" d="M373.17,-227.81C382.34,-223.91 391.8,-219.28 400.09,-214 419.65,-201.56 438.91,-184.77 454.69,-169.47"/>
<polygon fill="#999999" stroke="#999999" points="457.49,-171.63 462.14,-162.11 452.57,-166.65 457.49,-171.63"/>
</g>
<!-- rst -->
<g id="node2" class="node">
<title>rst</title>
<polygon fill="white" stroke="#999999" points="400.09,-205 262.09,-205 262.09,-167 400.09,-167 400.09,-205"/>
<text text-anchor="middle" x="331.09" y="-189.8" font-family="Times,serif" font-size="14.00" fill="#404040">restructuredText</text>
<text text-anchor="middle" x="331.09" y="-174.8" font-family="Times,serif" font-size="14.00" fill="#404040">files</text>
</g>
<!-- rst&#45;&gt;sphinx -->
<g id="edge2" class="edge">
<title>rst&#45;&gt;sphinx</title>
<path fill="none" stroke="#999999" d="M386.56,-166.88C401.37,-161.69 417.48,-156.03 432.54,-150.75"/>
<polygon fill="#999999" stroke="#999999" points="433.98,-153.95 442.26,-147.34 431.66,-147.35 433.98,-153.95"/>
</g>
<!-- conf -->
<g id="node3" class="node">
<title>conf</title>
<polygon fill="white" stroke="#999999" points="386.59,-149 275.59,-149 275.59,-111 386.59,-111 386.59,-149"/>
<text text-anchor="middle" x="331.09" y="-133.8" font-family="Times,serif" font-size="14.00" fill="#404040">conf.py</text>
<text text-anchor="middle" x="331.09" y="-118.8" font-family="Times,serif" font-size="14.00" fill="#404040">configuration</text>
</g>
<!-- conf&#45;&gt;sphinx -->
<g id="edge3" class="edge">
<title>conf&#45;&gt;sphinx</title>
<path fill="none" stroke="#999999" d="M387.01,-130C399.45,-130 412.8,-130 425.65,-130"/>
<polygon fill="#999999" stroke="#999999" points="425.83,-133.5 435.83,-130 425.83,-126.5 425.83,-133.5"/>
</g>
<!-- rtd -->
<g id="node4" class="node">
<title>rtd</title>
<polygon fill="white" stroke="#999999" points="387.59,-93 274.59,-93 274.59,-55 387.59,-55 387.59,-93"/>
<text text-anchor="middle" x="331.09" y="-77.8" font-family="Times,serif" font-size="14.00" fill="#404040">read&#45;the&#45;docs</text>
<text text-anchor="middle" x="331.09" y="-62.8" font-family="Times,serif" font-size="14.00" fill="#404040">theme</text>
</g>
<!-- rtd&#45;&gt;sphinx -->
<g id="edge7" class="edge">
<title>rtd&#45;&gt;sphinx</title>
<path fill="none" stroke="#999999" d="M386.56,-93.12C401.37,-98.31 417.48,-103.97 432.54,-109.25"/>
<polygon fill="#999999" stroke="#999999" points="431.66,-112.65 442.26,-112.66 433.98,-106.05 431.66,-112.65"/>
</g>
<!-- header -->
<g id="node5" class="node">
<title>header</title>
<polygon fill="white" stroke="#999999" points="90,-38 0,-38 0,0 90,0 90,-38"/>
<text text-anchor="middle" x="45" y="-22.8" font-family="Times,serif" font-size="14.00" fill="#404040">c header</text>
<text text-anchor="middle" x="45" y="-7.8" font-family="Times,serif" font-size="14.00" fill="#404040">comments</text>
</g>
<!-- doxygen -->
<g id="node9" class="node">
<title>doxygen</title>
<ellipse fill="white" stroke="#999999" cx="176.05" cy="-19" rx="50.09" ry="18"/>
<text text-anchor="middle" x="176.05" y="-15.3" font-family="Times,serif" font-size="14.00" fill="#404040">doxygen</text>
</g>
<!-- header&#45;&gt;doxygen -->
<g id="edge4" class="edge">
<title>header&#45;&gt;doxygen</title>
<path fill="none" stroke="#999999" d="M90.05,-19C98.34,-19 107.14,-19 115.8,-19"/>
<polygon fill="#999999" stroke="#999999" points="115.88,-22.5 125.88,-19 115.88,-15.5 115.88,-22.5"/>
</g>
<!-- xml -->
<g id="node6" class="node">
<title>xml</title>
<polygon fill="white" stroke="#999999" points="358.09,-37 304.09,-37 304.09,-1 358.09,-1 358.09,-37"/>
<text text-anchor="middle" x="331.09" y="-15.3" font-family="Times,serif" font-size="14.00" fill="#404040">XML</text>
</g>
<!-- xml&#45;&gt;sphinx -->
<g id="edge6" class="edge">
<title>xml&#45;&gt;sphinx</title>
<path fill="none" stroke="#999999" d="M358.34,-26.91C371.43,-31.46 387.18,-37.9 400.09,-46 419.88,-58.41 439.31,-75.35 455.15,-90.77"/>
<polygon fill="#999999" stroke="#999999" points="453.06,-93.62 462.62,-98.19 457.99,-88.66 453.06,-93.62"/>
</g>
<!-- html -->
<g id="node7" class="node">
<title>html</title>
<polygon fill="white" stroke="#999999" points="662.23,-149 585.23,-149 585.23,-111 662.23,-111 662.23,-149"/>
<text text-anchor="middle" x="623.73" y="-133.8" font-family="Times,serif" font-size="14.00" fill="#404040">HTML</text>
<text text-anchor="middle" x="623.73" y="-118.8" font-family="Times,serif" font-size="14.00" fill="#404040">web site</text>
</g>
<!-- sphinx&#45;&gt;html -->
<g id="edge8" class="edge">
<title>sphinx&#45;&gt;html</title>
<path fill="none" stroke="#999999" d="M549.52,-130C557.95,-130 566.58,-130 574.83,-130"/>
<polygon fill="#999999" stroke="#999999" points="575.02,-133.5 585.02,-130 575.02,-126.5 575.02,-133.5"/>
</g>
<!-- doxygen&#45;&gt;xml -->
<g id="edge5" class="edge">
<title>doxygen&#45;&gt;xml</title>
<path fill="none" stroke="#999999" d="M226.31,-19C248.34,-19 273.83,-19 294.04,-19"/>
<polygon fill="#999999" stroke="#999999" points="294.07,-22.5 304.07,-19 294.07,-15.5 294.07,-22.5"/>
</g>
</g>
</svg>
