<?xml version="1.0" encoding="UTF-8" standalone="no"?>
<!DOCTYPE svg PUBLIC "-//W3C//DTD SVG 1.1//EN"
 "http://www.w3.org/Graphics/SVG/1.1/DTD/svg11.dtd">
<!-- Generated by graphviz version 2.43.0 (0)
 -->
<!-- Title: %3 Pages: 1 -->
<svg width="186pt" height="444pt"
 viewBox="0.00 0.00 186.00 443.60" xmlns="http://www.w3.org/2000/svg" xmlns:xlink="http://www.w3.org/1999/xlink">
<g id="graph0" class="graph" transform="scale(1 1) rotate(0) translate(4 439.6)">
<title>%3</title>
<!-- init -->
<g id="node1" class="node">
<title>init</title>
<ellipse fill="white" stroke="#999999" cx="89.5" cy="-433.8" rx="1.8" ry="1.8"/>
</g>
<!-- New -->
<g id="node2" class="node">
<title>New</title>
<polygon fill="white" stroke="#999999" points="116.5,-396 62.5,-396 62.5,-360 116.5,-360 116.5,-396"/>
<text text-anchor="middle" x="89.5" y="-374.3" font-family="Times,serif" font-size="14.00" fill="#404040">New</text>
</g>
<!-- init&#45;&gt;New -->
<g id="edge1" class="edge">
<title>init&#45;&gt;New</title>
<path fill="none" stroke="#999999" d="M89.5,-431.87C89.5,-428.64 89.5,-417.55 89.5,-406.35"/>
<polygon fill="#999999" stroke="#999999" points="93,-406.26 89.5,-396.26 86,-406.26 93,-406.26"/>
</g>
<!-- Triage -->
<g id="node3" class="node">
<title>Triage</title>
<polygon fill="white" stroke="#999999" points="120.5,-324 58.5,-324 58.5,-288 120.5,-288 120.5,-324"/>
<text text-anchor="middle" x="89.5" y="-302.3" font-family="Times,serif" font-size="14.00" fill="#404040">Triage</text>
</g>
<!-- New&#45;&gt;Triage -->
<g id="edge2" class="edge">
<title>New&#45;&gt;Triage</title>
<path fill="none" stroke="#999999" d="M89.5,-359.7C89.5,-351.98 89.5,-342.71 89.5,-334.11"/>
<polygon fill="#999999" stroke="#999999" points="93,-334.1 89.5,-324.1 86,-334.1 93,-334.1"/>
</g>
<!-- Assigned -->
<g id="node4" class="node">
<title>Assigned</title>
<polygon fill="white" stroke="#999999" points="81,-252 0,-252 0,-216 81,-216 81,-252"/>
<text text-anchor="middle" x="40.5" y="-230.3" font-family="Times,serif" font-size="14.00" fill="#404040">Assigned</text>
</g>
<!-- Triage&#45;&gt;Assigned -->
<g id="edge4" class="edge">
<title>Triage&#45;&gt;Assigned</title>
<path fill="none" stroke="#999999" d="M77.39,-287.7C71.63,-279.47 64.64,-269.48 58.29,-260.42"/>
<polygon fill="#999999" stroke="#999999" points="61.08,-258.29 52.47,-252.1 55.34,-262.3 61.08,-258.29"/>
</g>
<!-- Rejected -->
<g id="node5" class="node">
<title>Rejected</title>
<polygon fill="white" stroke="#999999" points="178,-252 99,-252 99,-216 178,-216 178,-252"/>
<text text-anchor="middle" x="138.5" y="-230.3" font-family="Times,serif" font-size="14.00" fill="#404040">Rejected</text>
</g>
<!-- Triage&#45;&gt;Rejected -->
<g id="edge3" class="edge">
<title>Triage&#45;&gt;Rejected</title>
<path fill="none" stroke="#999999" d="M107.45,-279.36C111.72,-273.26 116.27,-266.75 120.54,-260.65"/>
<polygon fill="#999999" stroke="#999999" points="104.48,-277.5 101.61,-287.7 110.21,-281.51 104.48,-277.5"/>
<polygon fill="#999999" stroke="#999999" points="123.66,-262.3 126.53,-252.1 117.92,-258.29 123.66,-262.3"/>
</g>
<!-- Review -->
<g id="node6" class="node">
<title>Review</title>
<polygon fill="white" stroke="#999999" points="123.5,-180 55.5,-180 55.5,-144 123.5,-144 123.5,-180"/>
<text text-anchor="middle" x="89.5" y="-158.3" font-family="Times,serif" font-size="14.00" fill="#404040">Review</text>
</g>
<!-- Assigned&#45;&gt;Review -->
<g id="edge5" class="edge">
<title>Assigned&#45;&gt;Review</title>
<path fill="none" stroke="#999999" d="M58.45,-207.36C62.72,-201.26 67.27,-194.75 71.54,-188.65"/>
<polygon fill="#999999" stroke="#999999" points="55.48,-205.5 52.61,-215.7 61.21,-209.51 55.48,-205.5"/>
<polygon fill="#999999" stroke="#999999" points="74.66,-190.3 77.53,-180.1 68.92,-186.29 74.66,-190.3"/>
</g>
<!-- Review&#45;&gt;Rejected -->
<g id="edge7" class="edge">
<title>Review&#45;&gt;Rejected</title>
<path fill="none" stroke="#999999" d="M101.47,-180.1C107.21,-188.3 114.2,-198.28 120.55,-207.36"/>
<polygon fill="#999999" stroke="#999999" points="117.79,-209.51 126.39,-215.7 123.52,-205.5 117.79,-209.51"/>
</g>
<!-- Accepted -->
<g id="node7" class="node">
<title>Accepted</title>
<polygon fill="white" stroke="#999999" points="130.5,-108 48.5,-108 48.5,-72 130.5,-72 130.5,-108"/>
<text text-anchor="middle" x="89.5" y="-86.3" font-family="Times,serif" font-size="14.00" fill="#404040">Accepted</text>
</g>
<!-- Review&#45;&gt;Accepted -->
<g id="edge6" class="edge">
<title>Review&#45;&gt;Accepted</title>
<path fill="none" stroke="#999999" d="M89.5,-143.7C89.5,-135.98 89.5,-126.71 89.5,-118.11"/>
<polygon fill="#999999" stroke="#999999" points="93,-118.1 89.5,-108.1 86,-118.1 93,-118.1"/>
</g>
<!-- Public -->
<g id="node8" class="node">
<title>Public</title>
<polygon fill="white" stroke="#999999" points="120,-36 59,-36 59,0 120,0 120,-36"/>
<text text-anchor="middle" x="89.5" y="-14.3" font-family="Times,serif" font-size="14.00" fill="#404040">Public</text>
</g>
<!-- Accepted&#45;&gt;Public -->
<g id="edge8" class="edge">
<title>Accepted&#45;&gt;Public</title>
<path fill="none" stroke="#999999" d="M89.5,-71.7C89.5,-63.98 89.5,-54.71 89.5,-46.11"/>
<polygon fill="#999999" stroke="#999999" points="93,-46.1 89.5,-36.1 86,-46.1 93,-46.1"/>
</g>
</g>
</svg>
