<?xml version="1.0" encoding="UTF-8" standalone="no"?>
<!DOCTYPE svg PUBLIC "-//W3C//DTD SVG 1.1//EN"
 "http://www.w3.org/Graphics/SVG/1.1/DTD/svg11.dtd">
<!-- Generated by graphviz version 2.43.0 (0)
 -->
<!-- Title: %3 Pages: 1 -->
<svg width="446pt" height="228pt"
 viewBox="0.00 0.00 445.50 227.60" xmlns="http://www.w3.org/2000/svg" xmlns:xlink="http://www.w3.org/1999/xlink">
<g id="graph0" class="graph" transform="scale(1 1) rotate(0) translate(4 223.6)">
<title>%3</title>
<!-- init -->
<g id="node1" class="node">
<title>init</title>
<ellipse fill="white" stroke="#999999" cx="131" cy="-217.8" rx="1.8" ry="1.8"/>
</g>
<!-- SUSPENDED -->
<g id="node2" class="node">
<title>SUSPENDED</title>
<polygon fill="white" stroke="#999999" points="262,-180 0,-180 0,-144 262,-144 262,-180"/>
<text text-anchor="middle" x="131" y="-158.3" font-family="Times,serif" font-size="14.00" fill="#404040">PM_DEVICE_STATE_SUSPENDED</text>
</g>
<!-- init&#45;&gt;SUSPENDED -->
<g id="edge1" class="edge">
<title>init&#45;&gt;SUSPENDED</title>
<path fill="none" stroke="#999999" d="M131,-215.87C131,-212.64 131,-201.55 131,-190.35"/>
<polygon fill="#999999" stroke="#999999" points="134.5,-190.26 131,-180.26 127.5,-190.26 134.5,-190.26"/>
</g>
<!-- ACTIVE -->
<g id="node3" class="node">
<title>ACTIVE</title>
<polygon fill="white" stroke="#999999" points="241,-36 21,-36 21,0 241,0 241,-36"/>
<text text-anchor="middle" x="131" y="-14.3" font-family="Times,serif" font-size="14.00" fill="#404040">PM_DEVICE_STATE_ACTIVE</text>
</g>
<!-- SUSPENDED&#45;&gt;ACTIVE -->
<g id="edge2" class="edge">
<title>SUSPENDED&#45;&gt;ACTIVE</title>
<path fill="none" stroke="#999999" d="M126.42,-143.87C123.86,-119.67 123.57,-75.21 125.54,-46.39"/>
<polygon fill="#999999" stroke="#999999" points="129.05,-46.45 126.41,-36.19 122.07,-45.86 129.05,-46.45"/>
</g>
<!-- SUSPENDING -->
<g id="node4" class="node">
<title>SUSPENDING</title>
<polygon fill="white" stroke="#999999" points="437.5,-108 168.5,-108 168.5,-72 437.5,-72 437.5,-108"/>
<text text-anchor="middle" x="303" y="-86.3" font-family="Times,serif" font-size="14.00" fill="#404040">PM_DEVICE_STATE_SUSPENDING</text>
</g>
<!-- SUSPENDED&#45;&gt;SUSPENDING -->
<!-- ACTIVE&#45;&gt;SUSPENDED -->
<g id="edge3" class="edge">
<title>ACTIVE&#45;&gt;SUSPENDED</title>
<path fill="none" stroke="#999999" d="M135.59,-36.19C138.15,-60.42 138.43,-104.89 136.45,-133.68"/>
<polygon fill="#999999" stroke="#999999" points="132.95,-133.61 135.58,-143.87 139.92,-134.21 132.95,-133.61"/>
</g>
<!-- ACTIVE&#45;&gt;SUSPENDING -->
<g id="edge4" class="edge">
<title>ACTIVE&#45;&gt;SUSPENDING</title>
<path fill="none" stroke="#999999" d="M178.83,-36.07C203.43,-45.67 233.21,-57.74 257.47,-67.93"/>
<polygon fill="#999999" stroke="#999999" points="256.25,-71.21 266.82,-71.88 258.97,-64.76 256.25,-71.21"/>
</g>
<!-- SUSPENDING&#45;&gt;SUSPENDED -->
<g id="edge5" class="edge">
<title>SUSPENDING&#45;&gt;SUSPENDED</title>
<path fill="none" stroke="#999999" d="M266.95,-108.07C244.17,-117.76 214.31,-129.95 188.34,-140.2"/>
<polygon fill="#999999" stroke="#999999" points="187,-136.96 178.97,-143.88 189.56,-143.48 187,-136.96"/>
</g>
<!-- SUSPENDING&#45;&gt;ACTIVE -->
</g>
</svg>
