<?xml version="1.0" encoding="UTF-8" standalone="no"?>
<!DOCTYPE svg PUBLIC "-//W3C//DTD SVG 1.1//EN"
 "http://www.w3.org/Graphics/SVG/1.1/DTD/svg11.dtd">
<!-- Generated by graphviz version 2.43.0 (0)
 -->
<!-- Title: smf_flat Pages: 1 -->
<svg width="133pt" height="228pt"
 viewBox="0.00 0.00 133.00 227.60" xmlns="http://www.w3.org/2000/svg" xmlns:xlink="http://www.w3.org/1999/xlink">
<g id="graph0" class="graph" transform="scale(1 1) rotate(0) translate(4 223.6)">
<title>smf_flat</title>
<!-- init -->
<g id="node1" class="node">
<title>init</title>
<ellipse fill="white" stroke="#999999" cx="80.5" cy="-217.8" rx="1.8" ry="1.8"/>
</g>
<!-- STATE_S0 -->
<g id="node2" class="node">
<title>STATE_S0</title>
<polygon fill="white" stroke="#999999" points="125,-180 36,-180 36,-144 125,-144 125,-180"/>
<text text-anchor="middle" x="80.5" y="-158.3" font-family="Times,serif" font-size="14.00" fill="#404040">STATE_S0</text>
</g>
<!-- init&#45;&gt;STATE_S0 -->
<g id="edge1" class="edge">
<title>init&#45;&gt;STATE_S0</title>
<path fill="none" stroke="#999999" d="M80.5,-215.87C80.5,-212.64 80.5,-201.55 80.5,-190.35"/>
<polygon fill="#999999" stroke="#999999" points="84,-190.26 80.5,-180.26 77,-190.26 84,-190.26"/>
</g>
<!-- STATE_S1 -->
<g id="node3" class="node">
<title>STATE_S1</title>
<polygon fill="white" stroke="#999999" points="89,-108 0,-108 0,-72 89,-72 89,-108"/>
<text text-anchor="middle" x="44.5" y="-86.3" font-family="Times,serif" font-size="14.00" fill="#404040">STATE_S1</text>
</g>
<!-- STATE_S0&#45;&gt;STATE_S1 -->
<g id="edge2" class="edge">
<title>STATE_S0&#45;&gt;STATE_S1</title>
<path fill="none" stroke="#999999" d="M71.6,-143.7C67.5,-135.73 62.55,-126.1 58.01,-117.26"/>
<polygon fill="#999999" stroke="#999999" points="60.98,-115.4 53.3,-108.1 54.76,-118.6 60.98,-115.4"/>
</g>
<!-- STATE_S2 -->
<g id="node4" class="node">
<title>STATE_S2</title>
<polygon fill="white" stroke="#999999" points="125,-36 36,-36 36,0 125,0 125,-36"/>
<text text-anchor="middle" x="80.5" y="-14.3" font-family="Times,serif" font-size="14.00" fill="#404040">STATE_S2</text>
</g>
<!-- STATE_S1&#45;&gt;STATE_S2 -->
<g id="edge3" class="edge">
<title>STATE_S1&#45;&gt;STATE_S2</title>
<path fill="none" stroke="#999999" d="M53.4,-71.7C57.5,-63.73 62.45,-54.1 66.99,-45.26"/>
<polygon fill="#999999" stroke="#999999" points="70.24,-46.6 71.7,-36.1 64.02,-43.4 70.24,-46.6"/>
</g>
<!-- STATE_S2&#45;&gt;STATE_S0 -->
<g id="edge4" class="edge">
<title>STATE_S2&#45;&gt;STATE_S0</title>
<path fill="none" stroke="#999999" d="M87.57,-36.33C91.34,-46.53 95.59,-59.78 97.5,-72 99.97,-87.81 99.97,-92.19 97.5,-108 96.14,-116.69 93.6,-125.9 90.89,-134.16"/>
<polygon fill="#999999" stroke="#999999" points="87.56,-133.07 87.57,-143.67 94.17,-135.38 87.56,-133.07"/>
</g>
</g>
</svg>
